# xmcd
#
# Track frame offsets: 
#        150
#        9277
#        21055
#        31622
#        43832
#        56115
#        68722
#        80695
#        90950
#        102795
#        114262
#        126520
#        136397
#        147340
#        159170
#        170800
#        182645
#        194900
#        204137
#        217825
#        229705
#        241005
#        253060
#        266547
#        277587
#        287095
#        295425
#        305480
#        318417
#        331535
#        341830
#
# Disc length: 4676 seconds
#
# Revision: 0
# Processed by: cddbd v1.4PL0 Copyright (c) Steve Scherf et al.
# Submitted via: ExactAudioCopy v0.90b4
#
DISCID=b412421f
DTITLE=Jimmy Martin and the Sunny Mountain Boys - 1954 - 1974 [CD1]
DYEAR=1994
DGENRE=Bluegrass
TTITLE0=Save It! Save It!
TTITLE1=Chalk Up Another One
TTITLE2=I Pulled A Boo Boo
TTITLE3=They Didn't  Know The Difference (But I Did)
TTITLE4=20/20 Vision
TTITLE5=That's How I Can Count On You
TTITLE6=Before The Sun Goes Down
TTITLE7=Skip, Hop And Wobble
TTITLE8=You'll Be A Lost Ball
TTITLE9=Hit Parade Of Love
TTITLE10=Grand Ole Opry Song
TTITLE11=I'm The Boss (Of This Here House)
TTITLE12=Dog Bite Your Hide
TTITLE13=I'll Drink No More Wine
TTITLE14=Ocean Of Diamonds
TTITLE15=Sophronie
TTITLE16=I'll Never Take No For An Answer
TTITLE17=Rock Hearts
TTITLE18=I Like To Hear 'Em Preach It
TTITLE19=Voice Of My Savior
TTITLE20=Night
TTITLE21=It's Not Like Home
TTITLE22=She's Left Me Again
TTITLE23=Hold Whatcha Got
TTITLE24=Bear Tracks
TTITLE25=Cripple Creek
TTITLE26=In Foggy Old London
TTITLE27=The Jokes On You
TTITLE28=Wooden Shoes
TTITLE29=Home Run Man
TTITLE30=Who'll Sing For Me
EXTD=
EXTT0=
EXTT1=
EXTT2=
EXTT3=
EXTT4=
EXTT5=
EXTT6=
EXTT7=
EXTT8=
EXTT9=
EXTT10=
EXTT11=
EXTT12=
EXTT13=
EXTT14=
EXTT15=
EXTT16=
EXTT17=
EXTT18=
EXTT19=
EXTT20=
EXTT21=
EXTT22=
EXTT23=
EXTT24=
EXTT25=
EXTT26=
EXTT27=
EXTT28=
EXTT29=
EXTT30=
PLAYORDER=
